<?xml version="1.0" encoding="utf-8"?>
<!-- Generator: Adobe Illustrator 16.0.0, SVG Export Plug-In . SVG Version: 6.00 Build 0)  -->
<!DOCTYPE svg PUBLIC "-//W3C//DTD SVG 1.1//EN" "http://www.w3.org/Graphics/SVG/1.1/DTD/svg11.dtd">
<svg version="1.1" id="Layer_1" xmlns="http://www.w3.org/2000/svg" xmlns:xlink="http://www.w3.org/1999/xlink" x="0px" y="0px"
	 width="144px" height="144px" viewBox="0 0 144 144" enable-background="new 0 0 144 144" xml:space="preserve">
<polygon fill="none" stroke="#000000" stroke-width="0.5" stroke-miterlimit="10" points="52.576,91.292 52.587,91.303 
	52.565,91.281 "/>
<g>
	<g>
		<g>
			<path fill="#FFFFFF" d="M64.829,72.051L49.267,87.615c0.959,1.348,2.037,2.64,3.247,3.85l0.023,0.023
				c1.209,1.207,2.5,2.286,3.848,3.246L76.479,74.64c-0.832-0.207-1.701-0.327-2.6-0.327C70.611,74.313,67.529,73.494,64.829,72.051
				z"/>
			<path fill="#FFFFFF" d="M55.303,60.221L43.729,71.795c0.216,3.893,1.182,7.752,2.897,11.341l14.06-14.058
				C58.156,66.702,56.266,63.655,55.303,60.221z"/>
			<path fill="#FFFFFF" d="M81.137,77.102L60.863,97.374c3.59,1.715,7.449,2.683,11.342,2.897l1.674-1.675l2.863-2.863l7.65-7.65
				c0.249-0.914,0.396-1.869,0.395-2.863C84.788,81.992,83.371,79.101,81.137,77.102z"/>
		</g>
		<g>
			<path fill="#FFFFFF" d="M82.934,68.186L95.236,55.88c1.967-1.965,1.966-5.152,0-7.116c-1.963-1.968-5.152-1.968-7.116,0
				L71.283,65.599c0.834,0.205,1.701,0.324,2.598,0.324C77.15,65.926,80.232,66.744,82.934,68.186z"/>
			<path fill="#FFFFFF" d="M98.797,73.678c1.967-1.965,1.967-5.152,0-7.117c-1.967-1.967-5.152-1.967-7.119-0.002l-4.6,4.602
				c2.529,2.376,4.418,5.423,5.381,8.857L98.797,73.678L98.797,73.678z"/>
			<path fill="#FFFFFF" d="M77.44,45.201c-0.983-0.98-2.271-1.473-3.56-1.473c-0.862,0-1.715,0.239-2.486,0.678
				c-0.379,0.218-0.747,0.471-1.073,0.795c-0.002,0.006-0.003,0.006-0.005,0.006l-6.949,6.951c-0.248,0.912-0.392,1.869-0.393,2.857
				c0.001,3.228,1.417,6.122,3.651,8.124L77.44,52.323V52.32l0,0C79.407,50.355,79.407,47.168,77.44,45.201z"/>
		</g>
	</g>
</g>
</svg>
